<svg width="173" height="32" viewBox="0 0 173 32" fill="none" xmlns="http://www.w3.org/2000/svg">
<path d="M15.3545 11.8663C17.0146 10.5289 20.1394 10.6623 22.4489 11.6727C24.6478 12.6345 25.2896 14.123 24.2842 15.8027C24.0177 16.2447 23.6508 16.6307 23.2082 16.9548C22.9389 17.153 24.9559 17.4727 23.8549 17.3175C22.7538 17.1624 17.8024 15.6562 17.8024 15.6562C17.8024 15.6562 15.1828 14.8088 11.4412 13.0945C7.69959 11.3802 7.1159 11.8339 8.07885 9.62103C9.04179 7.40819 12.3451 5.1511 12.3451 5.1511L17.0503 0.848966L22.0521 2.55054L22.3117 5.1751L18.2435 5.4019L17.1234 4.49706" fill="#063660"/>
<path d="M21.9861 15.219C20.4622 14.3578 26.9325 14.0772 26.9325 14.0772L27.0494 14.9216C27.0494 14.9216 27.1436 19.0257 26.9325 19.6034C26.7214 20.1811 19.5571 17.6882 20.0027 17.6576C20.4483 17.6269 23.51 16.0803 21.9861 15.219Z" fill="#063660"/>
<path d="M7.49597 11.5445C7.49597 11.5445 7.81984 9.559 8.30275 9.21848C8.78566 8.87797 10.2757 11.6462 10.2757 11.6462L9.51004 12.2345L7.49597 11.5445Z" fill="#063660"/>
<path d="M16.6455 20.1337C14.9854 21.4711 11.8606 21.3377 9.55106 20.3273C7.35219 19.3655 6.71042 17.877 7.71582 16.1973C7.98225 15.7553 8.34916 15.3693 8.79183 15.0452C9.06108 14.847 7.04406 14.5273 8.14513 14.6825C9.2462 14.8376 14.1976 16.3438 14.1976 16.3438C14.1976 16.3438 16.8172 17.1912 20.5588 18.9055C24.3004 20.6198 24.8841 20.1661 23.9212 22.379C22.9582 24.5918 19.6549 26.8489 19.6549 26.8489L14.9497 31.151L9.94792 29.4495L9.68831 26.8249L13.7565 26.5981L14.8766 27.5029" fill="#0F4F80"/>
<path d="M10.0139 16.781C11.5378 17.6422 5.06749 17.9228 5.06749 17.9228L4.95064 17.0784C4.95064 17.0784 4.85635 12.9743 5.06749 12.3966C5.27862 11.8189 12.4429 14.3118 11.9973 14.3424C11.5517 14.3731 8.48995 15.9197 10.0139 16.781Z" fill="#0F4F80"/>
<path d="M24.504 20.4555C24.504 20.4555 24.1802 22.441 23.6972 22.7815C23.2143 23.122 21.7243 20.3538 21.7243 20.3538L22.49 19.7655L24.504 20.4555Z" fill="#0F4F80"/>
<path d="M41.6116 26V6.12H50.5436V8.808H44.8036V14.968H50.1796V17.516H44.8036V26H41.6116ZM62.303 26V6.12H65.495V26H62.303ZM80.6225 26V8.808H77.0945V6.12H87.3425V8.808H83.8145V26H80.6225ZM103.452 26.336C102.313 26.336 101.324 26.028 100.484 25.412C99.6437 24.796 98.9904 23.7413 98.5237 22.248C98.0757 20.7547 97.8517 18.692 97.8517 16.06C97.8517 13.428 98.0757 11.3653 98.5237 9.872C98.9904 8.37867 99.6437 7.324 100.484 6.708C101.324 6.092 102.313 5.784 103.452 5.784C104.441 5.784 105.318 6.02667 106.084 6.512C106.849 6.99733 107.456 7.80933 107.904 8.948C108.352 10.0867 108.585 11.6453 108.604 13.624L105.664 13.736C105.589 11.7387 105.384 10.348 105.048 9.564C104.712 8.78 104.189 8.388 103.48 8.388C102.994 8.388 102.574 8.57467 102.22 8.948C101.865 9.32133 101.585 9.984 101.38 10.936C101.193 11.8693 101.1 13.176 101.1 14.856V17.264C101.1 18.9253 101.193 20.232 101.38 21.184C101.585 22.1173 101.865 22.78 102.22 23.172C102.593 23.5453 103.022 23.732 103.508 23.732C104.217 23.732 104.73 23.34 105.048 22.556C105.384 21.772 105.589 20.3907 105.664 18.412L108.604 18.496C108.566 20.512 108.314 22.0893 107.848 23.228C107.4 24.3667 106.793 25.1693 106.028 25.636C105.262 26.1027 104.404 26.336 103.452 26.336ZM119.212 26L123.216 6.12H127.472L131.504 26H128.256L127.36 21.212H123.216L122.348 26H119.212ZM123.664 18.664H126.912L125.288 9.34L123.664 18.664ZM142.963 26V6.12H146.155V23.312H151.811V26H142.963ZM163.436 26V6.12H166.628V23.312H172.284V26H163.436Z" fill="#101010"/>
</svg>
